<svg width="1771" height="881" viewBox="0 0 1771 881" fill="none" xmlns="http://www.w3.org/2000/svg">
<g clip-path="url(#clip0_197_420)">
<rect x="-19.7939" width="1788.84" height="881" fill="#EEC5F3"/>
<path d="M-19.3726 271C488.226 75.9126 676.221 90.1411 875.417 271H1770.21V881H-19.3726V271Z" fill="#9D98CA"/>
<path d="M1459.94 349.9C1198.32 370.393 1149.84 295.893 815.499 214.799C815.499 214.799 772.324 241.929 1060.8 350.153C1349.27 458.378 1459.94 349.9 1459.94 349.9Z" fill="#F0E2F2" stroke="#F4E8F6"/>
<path d="M-18.5024 295.312C-28.2133 311.791 -18.5025 199 -18.5025 199C-18.5025 199 411.17 113.096 398.432 144C198.399 202.121 -8.79151 278.832 -18.5024 295.312Z" fill="#F0E2F2" stroke="#F4E8F6"/>
<path d="M-24.1069 231.442V200.818C-24.1069 200.818 391.762 -19.0225 868.377 124.813C1344.99 268.648 1770.21 84.322 1770.21 84.322V339.739C1479.62 388.893 1198.62 373.095 805.407 200.818C562.033 94.1883 146.78 124.813 -24.1069 231.442Z" fill="#F8C7DD"/>
<path d="M-20.5566 321.44V277.44C526.05 31.5336 643.097 102.742 872.372 242.229L872.635 242.389C1102.08 381.981 1413.95 444.58 1769.02 213.44V405.44C1769.02 499.44 1055.09 512.021 839.203 295.781C623.313 79.542 407.901 103.44 -20.5566 321.44Z" fill="#D8A5D5"/>
</g>
<defs>
<clipPath id="clip0_197_420">
<rect width="1770.21" height="881" fill="white"/>
</clipPath>
</defs>
</svg>
