<svg xmlns="http://www.w3.org/2000/svg" width="40" height="39" viewBox="0 0 40 39" fill="none">
  <g clip-path="url(#clip0_30_494)">
    <path d="M20 3.51152C25.3438 3.51152 25.9766 3.53437 28.0781 3.62578C30.0313 3.70957 31.0859 4.02949 31.7891 4.29609C32.7188 4.64648 33.3906 5.07305 34.0859 5.75098C34.7891 6.43652 35.2188 7.08398 35.5781 7.99043C35.8516 8.67598 36.1797 9.71191 36.2656 11.6086C36.3594 13.6652 36.3828 14.2822 36.3828 19.4848C36.3828 24.6949 36.3594 25.3119 36.2656 27.3609C36.1797 29.2652 35.8516 30.2936 35.5781 30.9791C35.2188 31.8855 34.7813 32.5406 34.0859 33.2186C33.3828 33.9041 32.7188 34.323 31.7891 34.6734C31.0859 34.94 30.0234 35.26 28.0781 35.3438C25.9688 35.4352 25.3359 35.458 20 35.458C14.6563 35.458 14.0234 35.4352 11.9219 35.3438C9.96875 35.26 8.91406 34.94 8.21094 34.6734C7.28125 34.323 6.60938 33.8965 5.91406 33.2186C5.21094 32.533 4.78125 31.8855 4.42188 30.9791C4.14844 30.2936 3.82031 29.2576 3.73438 27.3609C3.64063 25.3043 3.61719 24.6873 3.61719 19.4848C3.61719 14.2746 3.64063 13.6576 3.73438 11.6086C3.82031 9.7043 4.14844 8.67598 4.42188 7.99043C4.78125 7.08398 5.21875 6.42891 5.91406 5.75098C6.61719 5.06543 7.28125 4.64648 8.21094 4.29609C8.91406 4.02949 9.97656 3.70957 11.9219 3.62578C14.0234 3.53437 14.6563 3.51152 20 3.51152ZM20 0C14.5703 0 13.8906 0.0228516 11.7578 0.114258C9.63281 0.205664 8.17188 0.54082 6.90625 1.0207C5.58594 1.52344 4.46875 2.18613 3.35938 3.27539C2.24219 4.35703 1.5625 5.44629 1.04688 6.72598C0.554688 7.96758 0.210938 9.38437 0.117188 11.4562C0.0234375 13.5434 0 14.2061 0 19.5C0 24.7939 0.0234375 25.4566 0.117188 27.5361C0.210938 29.608 0.554688 31.0324 1.04688 32.2664C1.5625 33.5537 2.24219 34.643 3.35938 35.7246C4.46875 36.8063 5.58594 37.4766 6.89844 37.9717C8.17188 38.4516 9.625 38.7867 11.75 38.8781C13.8828 38.9695 14.5625 38.9924 19.9922 38.9924C25.4219 38.9924 26.1016 38.9695 28.2344 38.8781C30.3594 38.7867 31.8203 38.4516 33.0859 37.9717C34.3984 37.4766 35.5156 36.8063 36.625 35.7246C37.7344 34.643 38.4219 33.5537 38.9297 32.274C39.4219 31.0324 39.7656 29.6156 39.8594 27.5438C39.9531 25.4643 39.9766 24.8016 39.9766 19.5076C39.9766 14.2137 39.9531 13.551 39.8594 11.4715C39.7656 9.39961 39.4219 7.9752 38.9297 6.74121C38.4375 5.44629 37.7578 4.35703 36.6406 3.27539C35.5313 2.19375 34.4141 1.52344 33.1016 1.02832C31.8281 0.548437 30.375 0.213281 28.25 0.121875C26.1094 0.0228516 25.4297 0 20 0Z" fill="white"/>
    <path d="M20 9.4834C14.3281 9.4834 9.72656 13.9699 9.72656 19.5C9.72656 25.0301 14.3281 29.5166 20 29.5166C25.6719 29.5166 30.2734 25.0301 30.2734 19.5C30.2734 13.9699 25.6719 9.4834 20 9.4834ZM20 25.9975C16.3203 25.9975 13.3359 23.0877 13.3359 19.5C13.3359 15.9123 16.3203 13.0025 20 13.0025C23.6797 13.0025 26.6641 15.9123 26.6641 19.5C26.6641 23.0877 23.6797 25.9975 20 25.9975Z" fill="white"/>
    <path d="M33.0781 9.08701C33.0781 10.3819 32 11.4255 30.6797 11.4255C29.3516 11.4255 28.2812 10.3743 28.2812 9.08701C28.2812 7.79209 29.3594 6.74854 30.6797 6.74854C32 6.74854 33.0781 7.79971 33.0781 9.08701Z" fill="white"/>
  </g>
  <defs>
    <clipPath id="clip0_30_494">
      <rect width="40" height="39" fill="white"/>
    </clipPath>
  </defs>
</svg>